# xmcd
#
# Track frame offsets:
#	300
#	29091
#	45919
#	67433
#	98283
#	123342
#	139854
#	152216
#	170403
#	187038
#	204712
#	224584
#	255249
#
# Disc length: 3638 seconds
#
# Revision: 0
# Processed by: cddbd v1.5.1PL0 Copyright (c) Steve Scherf et al.
# Submitted via: dBpowerAMP V4.0
#
DISCID=c20e320d
DTITLE=Uschi Brüning - Swinging Ballds
DYEAR=2005
DGENRE=Jazz
TTITLE0=Black Coffee
TTITLE1=Stormy Monday Blues
TTITLE2=And I Love Her (Him)
TTITLE3=Roof Runner
TTITLE4=Georgia
TTITLE5=Blues Usel
TTITLE6=God Shall Wipe All Tears Away
TTITLE7=Strange Things Happen Every Day
TTITLE8=Filthy McNasty
TTITLE9=Never Make Your Move Too Soon
TTITLE10=SOK - Rock
TTITLE11=Compared To What
TTITLE12=Still Unnamed
EXTD=
EXTT0=
EXTT1=
EXTT2=
EXTT3=
EXTT4=
EXTT5=
EXTT6=
EXTT7=
EXTT8=
EXTT9=
EXTT10=
EXTT11=
EXTT12=
PLAYORDER=
